HIERARCHY
ROOT Hips
{
	OFFSET 0.000000 0.000000 0.000000
	CHANNELS 6 Xposition Yposition Zposition Xrotation Yrotation Zrotation
	JOINT Chest
	{
		OFFSET 0.000000 0.009282 11.569106
		CHANNELS 3 Xrotation Yrotation Zrotation
		JOINT Chest2
		{
			OFFSET 0.000000 -0.016863 9.269641
			CHANNELS 3 Xrotation Yrotation Zrotation
			JOINT Chest3
			{
				OFFSET 0.000000 0.000000 8.374491
				CHANNELS 3 Xrotation Yrotation Zrotation
				JOINT Chest4
				{
					OFFSET 0.000000 0.000000 8.374493
					CHANNELS 3 Xrotation Yrotation Zrotation
					JOINT Neck
					{
						OFFSET 0.000000 -0.000001 12.152554
						CHANNELS 3 Xrotation Yrotation Zrotation
						JOINT Head
						{
							OFFSET 0.000000 -0.040100 7.802319
							CHANNELS 3 Xrotation Yrotation Zrotation
							End Site
							{
								OFFSET 0.000000 -0.020946 14.853096
							}
						}
					}
					JOINT RightCollar
					{
						OFFSET -2.894404 0.000000 6.791374
						CHANNELS 3 Xrotation Yrotation Zrotation
						JOINT RightShoulder
						{
							OFFSET -13.574684 0.000000 0.000000
							CHANNELS 3 Xrotation Yrotation Zrotation
							JOINT RightElbow
							{
								OFFSET -23.923903 0.000000 0.000000
								CHANNELS 3 Xrotation Yrotation Zrotation
								JOINT RightWrist
								{
									OFFSET -19.846718 -0.012765 0.000000
									CHANNELS 3 Xrotation Yrotation Zrotation
									End Site
									{
										OFFSET -14.973145 0.000000 0.000000
									}
								}
							}
						}
					}
					JOINT LeftCollar
					{
						OFFSET 2.894404 0.000000 6.791374
						CHANNELS 3 Xrotation Yrotation Zrotation
						JOINT LeftShoulder
						{
							OFFSET 13.574684 0.000000 0.000000
							CHANNELS 3 Xrotation Yrotation Zrotation
							JOINT LeftElbow
							{
								OFFSET 23.923903 0.000000 0.000000
								CHANNELS 3 Xrotation Yrotation Zrotation
								JOINT LeftWrist
								{
									OFFSET 19.846718 -0.012765 0.000000
									CHANNELS 3 Xrotation Yrotation Zrotation
									End Site
									{
										OFFSET 14.973145 0.000000 0.000000
									}
								}
							}
						}
					}
				}
			}
		}
	}
	JOINT RightHip
	{
		OFFSET -9.469263 -0.004642 0.045487
		CHANNELS 3 Xrotation Yrotation Zrotation
		JOINT RightKnee
		{
			OFFSET 0.000000 -0.002666 -40.478676
			CHANNELS 3 Xrotation Yrotation Zrotation
			JOINT RightAnkle
			{
				OFFSET 0.000000 -0.049110 -35.224068
				CHANNELS 3 Xrotation Yrotation Zrotation
				JOINT RightToe
				{
					OFFSET 0.000000 -12.539530 -6.151390
					CHANNELS 3 Xrotation Yrotation Zrotation
					End Site
					{
						OFFSET 0.000000 -5.044995 -1.291870
					}
				}
			}
		}
	}
	JOINT LeftHip
	{
		OFFSET 9.469263 -0.004642 0.045487
		CHANNELS 3 Xrotation Yrotation Zrotation
		JOINT LeftKnee
		{
			OFFSET 0.000000 -0.002666 -40.478676
			CHANNELS 3 Xrotation Yrotation Zrotation
			JOINT LeftAnkle
			{
				OFFSET 0.000000 -0.049110 -35.224068
				CHANNELS 3 Xrotation Yrotation Zrotation
				JOINT LeftToe
				{
					OFFSET 0.000000 -12.539530 -6.151390
					CHANNELS 3 Xrotation Yrotation Zrotation
					End Site
					{
						OFFSET 0.000000 -5.044995 -1.291870
					}
				}
			}
		}
	}
}
MOTION
Frames: 7
Frame Time: 0.016667
-37.313660 17.029905 83.011444 -0.214247 5.837051 -104.254443 7.058441 1.677759 -2.449399 2.982154 0.660539 0.069382 2.982153 0.660539 0.069385 2.236667 0.495079 0.055260 15.021883 -0.657352 -0.952754 -8.292083 -0.838018 -1.979226 -8.956737 -9.058552 -0.958879 19.391966 -40.834740 -2.616048 70.553464 23.278663 67.408803 -63.781632 45.779715 88.667002 -6.181931 7.742679 -3.706015 21.477999 38.782180 7.477028 62.593438 -9.287286 -66.712582 -34.793639 -34.097903 -88.470327 6.818145 -5.726453 -21.263337 -0.134147 -3.386829 -2.337621 -4.041795 2.719301 4.884877 -0.556244 0.073385 -1.000648 -1.866910 -11.490103 5.920702 22.701626 3.592197 17.495369 5.804997 -9.060925 6.206975 -8.585330 22.795213 1.206542 
-37.644669 16.985718 82.945969 0.026043 6.178216 -105.123742 7.452572 1.643735 -1.218456 3.008947 0.625223 0.094005 3.008948 0.625223 0.094005 2.256783 0.468467 0.073585 15.347872 -0.539962 -0.910017 -7.684882 -0.645087 -1.855809 -9.021939 -9.057674 -0.930176 19.500448 -40.697078 -2.544831 70.517537 23.222314 67.580262 -63.839374 45.818459 88.715893 -6.281319 7.743711 -3.692210 21.497204 38.778249 7.375931 62.609127 -9.331621 -66.603907 -34.622649 -34.125189 -88.325349 7.382832 -5.621328 -20.398616 0.012589 -3.508853 -2.367521 -4.345332 2.662107 4.727768 -0.365801 0.135985 -0.840645 -3.399469 -12.273240 7.210109 24.851259 4.453561 19.010283 5.958681 -10.434076 6.841536 -6.252386 18.811043 0.403756 
-37.936203 16.899038 82.880173 0.164429 6.136980 -105.677554 7.454243 1.555143 -0.269251 3.024045 0.599814 0.119416 3.024047 0.599814 0.119408 2.268129 0.449282 0.092528 15.753184 -0.431867 -0.837533 -6.930874 -0.480359 -1.682282 -9.009392 -9.070711 -0.910970 19.614828 -40.541155 -2.385684 70.497716 23.132732 67.701948 -63.994412 45.833366 88.853753 -6.315185 7.753241 -3.698959 21.350210 38.820876 7.390261 62.663448 -9.357952 -66.475567 -34.481674 -34.122409 -88.235430 7.493734 -5.557459 -19.583010 0.171399 -3.578840 -2.647277 -4.656097 2.633044 4.439692 -0.188489 0.108245 -0.563773 -5.089363 -13.043936 8.725895 26.708524 5.183256 20.205100 5.521088 -11.596873 7.158554 -4.161252 15.136546 -0.015522 
-38.168175 16.785915 82.829170 0.191916 6.010300 -105.762747 7.337274 1.467444 0.251231 3.030334 0.587581 0.139473 3.030334 0.587581 0.139471 2.272862 0.440007 0.107524 16.236884 -0.346220 -0.736743 -6.031980 -0.366526 -1.466076 -9.000831 -9.095758 -0.905213 19.738711 -40.422876 -2.218137 70.503316 23.046554 67.738107 -64.198867 45.833168 89.024289 -6.331035 7.763228 -3.707866 21.228409 38.905017 7.408619 62.675599 -9.385444 -66.345951 -34.434266 -34.087224 -88.254554 7.427309 -5.479545 -19.074591 0.313349 -3.613581 -3.108717 -4.867428 2.559576 4.193286 -0.099607 0.085638 -0.330025 -6.660138 -13.644261 10.499777 28.230598 5.686304 20.676333 4.936995 -12.527929 7.081470 -2.659635 11.745621 -0.151716 
-38.338509 16.663578 82.799385 0.123043 5.903084 -105.598939 7.190398 1.434752 0.558452 3.025989 0.585026 0.154631 3.025987 0.585026 0.154631 2.269623 0.438017 0.118871 16.800892 -0.283266 -0.616198 -4.984427 -0.300185 -1.222507 -8.983329 -9.113143 -0.897317 19.826969 -40.385577 -2.111881 70.506540 22.980861 67.715035 -64.318279 45.833356 89.128955 -6.333362 7.778932 -3.715181 21.240229 38.989151 7.366771 62.598663 -9.433472 -66.255806 -34.489757 -34.036243 -88.360969 7.344197 -5.350212 -18.865776 0.397598 -3.644009 -3.499043 -5.045333 2.450459 3.985634 -0.010519 0.083289 -0.147112 -8.070276 -13.997119 12.448012 29.427689 6.051732 20.548855 4.443260 -13.136570 7.038067 -1.681012 8.597303 -0.197292 
-38.439632 16.551558 82.786934 0.023384 5.758517 -105.235682 6.977653 1.397675 0.704375 3.006946 0.588613 0.164505 3.006946 0.588613 0.164504 2.255348 0.440663 0.126277 17.447783 -0.232592 -0.485248 -3.783059 -0.258377 -0.964646 -8.956832 -9.120477 -0.898428 19.867555 -40.424772 -2.073420 70.507906 22.927854 67.667435 -64.356706 45.841672 89.151092 -6.306706 7.799449 -3.720405 21.303949 39.028896 7.336803 62.469224 -9.498832 -66.228984 -34.544665 -33.987523 -88.450014 7.217385 -5.243908 -18.966394 0.424143 -3.673368 -3.712263 -5.156953 2.332892 3.773912 0.048182 0.089409 0.002432 -9.447678 -14.213992 14.117217 30.244279 6.499071 20.252120 4.031884 -13.471272 6.881691 -1.018946 5.709047 -0.192199 
-38.489380 16.466503 82.785980 -0.057595 5.621016 -104.708555 6.771420 1.334176 0.716081 2.977193 0.596488 0.171334 2.977190 0.596488 0.171330 2.233041 0.446544 0.131412 18.168254 -0.181910 -0.347551 -2.445064 -0.216698 -0.694825 -9.002459 -9.133601 -0.912954 19.868397 -40.495341 -2.140130 70.542501 22.879148 67.623565 -64.276233 45.858344 89.078187 -6.318317 7.811530 -3.705373 21.326770 39.012985 7.375108 62.404652 -9.538696 -66.245076 -34.530909 -33.954202 -88.454187 7.106114 -5.199540 -19.326150 0.397619 -3.688615 -3.826948 -5.173478 2.198772 3.645938 0.040998 0.107204 0.103754 -10.698213 -14.319879 15.437387 30.523487 6.975629 20.065240 3.754233 -13.481426 6.588761 -0.477109 3.082748 -0.102557 
